# xmcd CD database file
#
# Track frame offsets:
#	150
#	25989
#	43545
#	60519
#	81356
#	102538
#	117737
#	136002
#	162611
#	182361
#	202673
#	223269
#
# Disc length: 3229 seconds
#
# Revision: 0
# Processed by: cddbd v1.5.2PL0 Copyright (c) Steve Scherf et al.
# Submitted via: CDex 1.51
#
DISCID=a80c9b0c
DTITLE=Eric Clapton - Old Sock
DYEAR=2013
DGENRE=Blues
TTITLE0=Further On Down The Road
TTITLE1=Angel
TTITLE2=The Folks Who Live On The Hill
TTITLE3=Gotta Get Over
TTITLE4=Till Your Well Runs Dry
TTITLE5=All Of Me
TTITLE6=Born To Lose
TTITLE7=Still Got The Blues
TTITLE8=Goodnight Irene
TTITLE9=Your One And Only Man
TTITLE10=Every Little Thing
TTITLE11=Our Love Is Here To Stay
EXTD=YEAR: 2013
EXTT0=
EXTT1=
EXTT2=
EXTT3=
EXTT4=
EXTT5=
EXTT6=
EXTT7=
EXTT8=
EXTT9=
EXTT10=
EXTT11=
PLAYORDER=
